<mxfile host="65bd71144e">
    <diagram id="oz9hKJD6IcwOT1CZdr4y" name="Page-1">
        <mxGraphModel dx="1094" dy="457" grid="1" gridSize="10" guides="1" tooltips="1" connect="1" arrows="1" fold="1" page="1" pageScale="1" pageWidth="850" pageHeight="1100" math="0" shadow="0">
            <root>
                <mxCell id="0"/>
                <mxCell id="1" parent="0"/>
                <mxCell id="4" style="edgeStyle=none;html=1;entryX=0;entryY=0.5;entryDx=0;entryDy=0;" edge="1" parent="1" source="3" target="5">
                    <mxGeometry relative="1" as="geometry">
                        <mxPoint x="30" y="200" as="targetPoint"/>
                    </mxGeometry>
                </mxCell>
                <mxCell id="3" value="Instancia" style="ellipse;whiteSpace=wrap;html=1;aspect=fixed;" vertex="1" parent="1">
                    <mxGeometry y="40" width="60" height="60" as="geometry"/>
                </mxCell>
                <mxCell id="7" value="" style="edgeStyle=none;html=1;" edge="1" parent="1" source="5" target="6">
                    <mxGeometry relative="1" as="geometry"/>
                </mxCell>
                <mxCell id="5" value="Solucao TSP por LKH3" style="rounded=1;whiteSpace=wrap;html=1;align=center;" vertex="1" parent="1">
                    <mxGeometry x="90" y="40" width="100" height="60" as="geometry"/>
                </mxCell>
                <mxCell id="12" style="edgeStyle=none;html=1;entryX=0;entryY=0.5;entryDx=0;entryDy=0;" edge="1" parent="1" source="6" target="17">
                    <mxGeometry relative="1" as="geometry">
                        <mxPoint x="390" y="83.08823529411768" as="targetPoint"/>
                    </mxGeometry>
                </mxCell>
                <mxCell id="6" value="Solucao KP&amp;nbsp;&lt;span id=&quot;docs-internal-guid-574259a4-7fff-061c-184f-aa27f2c1ccff&quot;&gt;&lt;span style=&quot;font-size: 9pt; font-family: Arial, sans-serif; color: rgb(255, 255, 255); background-color: transparent; font-variant-numeric: normal; font-variant-east-asian: normal; font-variant-alternates: normal; font-variant-position: normal; vertical-align: baseline;&quot;&gt;adicionando itens de maior valor ate encher a mochila do fim para o inicio da rota&lt;/span&gt;&lt;/span&gt;&lt;br&gt;&amp;nbsp;" style="whiteSpace=wrap;html=1;rounded=1;align=center;" vertex="1" parent="1">
                    <mxGeometry x="210" y="25" width="150" height="90" as="geometry"/>
                </mxCell>
                <mxCell id="21" style="edgeStyle=none;html=1;" edge="1" parent="1" source="17">
                    <mxGeometry relative="1" as="geometry">
                        <mxPoint x="570" y="70" as="targetPoint"/>
                    </mxGeometry>
                </mxCell>
                <mxCell id="17" value="Busca Tabu nos Itens e nas rotas" style="rounded=0;whiteSpace=wrap;html=1;" vertex="1" parent="1">
                    <mxGeometry x="380" y="40" width="130" height="60" as="geometry"/>
                </mxCell>
                <mxCell id="22" value="Solucao Final" style="rounded=0;whiteSpace=wrap;html=1;" vertex="1" parent="1">
                    <mxGeometry x="570" y="40" width="130" height="60" as="geometry"/>
                </mxCell>
            </root>
        </mxGraphModel>
    </diagram>
</mxfile>